<svg id="visual" viewBox="0 0 900 600" width="900" height="600" xmlns="http://www.w3.org/2000/svg" xmlns:xlink="http://www.w3.org/1999/xlink" version="1.1"><rect x="0" y="0" width="900" height="600" fill="#F0F0F0"></rect><defs><linearGradient id="grad1_0" x1="33.3%" y1="0%" x2="100%" y2="100%"><stop offset="20%" stop-color="#f0f0f0" stop-opacity="1"></stop><stop offset="80%" stop-color="#f0f0f0" stop-opacity="1"></stop></linearGradient></defs><defs><linearGradient id="grad2_0" x1="0%" y1="0%" x2="66.7%" y2="100%"><stop offset="20%" stop-color="#f0f0f0" stop-opacity="1"></stop><stop offset="80%" stop-color="#f0f0f0" stop-opacity="1"></stop></linearGradient></defs><g transform="translate(900, 0)"><path d="M0 135.2C-16.7 119.9 -33.5 104.6 -55 95.3C-76.5 85.9 -102.9 82.5 -117.1 67.6C-131.3 52.7 -133.2 26.4 -135.2 0L0 0Z" fill="#146758"></path></g><g transform="translate(0, 600)"><path d="M0 -135.2C27.6 -134 55.3 -132.7 67.6 -117.1C80 -101.5 77 -71.4 85.7 -49.5C94.5 -27.6 114.8 -13.8 135.2 0L0 0Z" fill="#146758"></path></g></svg>