<svg width="1440" height="195" viewBox="0 0 1440 195" fill="none" xmlns="http://www.w3.org/2000/svg">
<path d="M0 50.1344L34.4 59.84C68.8 69.628 137.6 89.0393 206.08 96.7709C274.72 104.42 342.88 100.308 411.52 84.0219C480 67.6539 548.8 39.195 617.28 24.8832C685.92 10.6538 771.86 -4.77187 840.5 1.39698C908.98 7.56583 960 35.3292 1028.48 44.1301C1097.12 52.8487 1165.28 58.1128 1233.92 57.537C1302.4 56.9613 1371.2 50.7102 1405.6 47.5023L1440 44.3768V194.897H1405.6C1371.2 194.897 1302.4 194.897 1233.92 194.897C1165.28 194.897 1097.12 194.897 1028.48 194.897C960 194.897 891.2 194.897 822.72 194.897C754.08 194.897 685.92 194.897 617.28 194.897C548.8 194.897 480 194.897 411.52 194.897C342.88 194.897 274.72 194.897 206.08 194.897C137.6 194.897 68.8 194.897 34.4 194.897H0V50.1344Z" fill="#146758"/>
</svg>
